<svg width="214" height="59" viewBox="0 0 214 59" fill="none" xmlns="http://www.w3.org/2000/svg">
<path d="M13.3452 45.5861C10.0389 45.5861 7.33383 44.7295 5.22986 43.0163C3.15595 41.303 1.87854 39.0187 1.39764 36.1633L6.49224 34.901C6.82287 36.8847 7.60434 38.3875 8.83667 39.4095C10.099 40.4314 11.647 40.9423 13.4804 40.9423C14.5024 40.9423 15.4191 40.762 16.2306 40.4013C17.0421 40.0106 17.6733 39.4696 18.1242 38.7783C18.6051 38.087 18.8455 37.3055 18.8455 36.4338C18.8455 35.5021 18.5901 34.7356 18.0791 34.1345C17.5681 33.5033 16.8317 32.9473 15.8699 32.4664C14.9081 31.9554 13.7359 31.4294 12.3533 30.8884C10.4597 30.167 8.85169 29.3856 7.5292 28.544C6.20671 27.7024 5.19981 26.7105 4.5085 25.5684C3.8172 24.3961 3.47155 23.0135 3.47155 21.4205C3.47155 19.7674 3.87731 18.3097 4.68884 17.0473C5.50037 15.7548 6.64253 14.7479 8.1153 14.0266C9.58808 13.3052 11.2863 12.9445 13.2099 12.9445C15.2838 12.9445 17.1173 13.4104 18.7103 14.3422C20.3033 15.2739 21.5807 16.6866 22.5425 18.5802L18.3947 21.1049C17.7635 19.9628 16.9971 19.0911 16.0954 18.49C15.1937 17.8588 14.1717 17.5432 13.0296 17.5432C12.218 17.5432 11.4817 17.7085 10.8204 18.0392C10.1592 18.3397 9.63317 18.7755 9.24243 19.3466C8.88175 19.9177 8.70141 20.5789 8.70141 21.3304C8.70141 22.1118 8.92684 22.8031 9.37769 23.4043C9.82854 23.9753 10.5198 24.5013 11.4516 24.9822C12.4134 25.4632 13.6307 25.9891 15.1035 26.5602C16.9971 27.2816 18.6051 28.0631 19.9276 28.9046C21.2501 29.7462 22.257 30.7531 22.9483 31.9253C23.6696 33.0675 24.0303 34.4651 24.0303 36.1182C24.0303 37.9517 23.5795 39.5748 22.6778 40.9874C21.7761 42.4001 20.5137 43.5272 18.8906 44.3688C17.2976 45.1803 15.4491 45.5861 13.3452 45.5861ZM35.5686 45.4058C34.4565 45.4058 33.4045 45.1954 32.4126 44.7746C31.4508 44.3237 30.6844 43.6174 30.1133 42.6556C29.5422 41.6637 29.2567 40.3713 29.2567 38.7783V17.3629L34.3062 14.5676V37.3806C34.3062 38.643 34.4865 39.6199 34.8472 40.3112C35.2379 40.9724 35.9292 41.303 36.9211 41.303C37.2217 41.303 37.5673 41.273 37.9581 41.2129C38.3789 41.1227 38.8147 41.0175 39.2655 40.8973V44.7746C38.6644 44.985 38.0482 45.1353 37.4171 45.2254C36.8159 45.3457 36.1998 45.4058 35.5686 45.4058ZM25.0187 26.6504V22.7731H39.2655V26.6504H25.0187ZM58.0818 45L57.7212 41.2579V30.9786C57.7212 29.5358 57.2853 28.4538 56.4137 27.7324C55.5421 26.981 54.3248 26.6053 52.7618 26.6053C51.5595 26.6053 50.3723 26.8458 49.2001 27.3267C48.0579 27.7775 47.006 28.4839 46.0441 29.4457L43.2489 26.1545C44.6916 24.8019 46.2245 23.8401 47.8475 23.269C49.4706 22.6679 51.2439 22.3673 53.1676 22.3673C56.1732 22.3673 58.5026 23.1338 60.1558 24.6667C61.8389 26.1695 62.6805 28.2735 62.6805 30.9786V45H58.0818ZM51.1838 45.4058C49.5307 45.4058 48.0579 45.1052 46.7655 44.5041C45.5031 43.9029 44.5112 43.0613 43.7899 41.9793C43.0986 40.8973 42.7529 39.6349 42.7529 38.1922C42.7529 36.9598 43.0084 35.8928 43.5194 34.9911C44.0604 34.0894 44.7517 33.3831 45.5933 32.8721C46.3147 32.4213 47.1562 32.1057 48.1181 31.9253C49.0799 31.7149 50.0868 31.6097 51.1387 31.6097H58.1269V35.3518H51.8601C51.3191 35.3518 50.7781 35.4119 50.237 35.5321C49.696 35.6223 49.2151 35.8027 48.7943 36.0732C48.4938 36.3136 48.2383 36.6142 48.0279 36.9749C47.8475 37.3355 47.7574 37.7563 47.7574 38.2372C47.7574 39.1991 48.1181 39.9655 48.8394 40.5366C49.5908 41.0776 50.5827 41.3481 51.815 41.3481C52.8971 41.3481 53.8739 41.1077 54.7456 40.6268C55.6473 40.1458 56.3686 39.4846 56.9096 38.643C57.4507 37.8014 57.7212 36.8546 57.7212 35.8027L59.2541 38.2823C58.8934 39.8453 58.3223 41.1678 57.5408 42.2498C56.7593 43.3018 55.8276 44.0983 54.7456 44.6393C53.6635 45.1503 52.4763 45.4058 51.1838 45.4058ZM83.327 45L76.6093 34.405L72.8222 38.5979V32.2409L81.8843 22.7731H88.2863L80.2612 31.0687L89.2782 45H83.327ZM68.2686 45V13.5757H73.273V45H68.2686ZM101.474 45.4058C99.6106 45.4058 97.9875 45.1052 96.6049 44.5041C95.2523 43.9029 94.1402 43.0613 93.2686 41.9793C92.3969 40.8973 91.7507 39.68 91.3299 38.3274C90.9091 36.9448 90.6987 35.5171 90.6987 34.0443C90.6987 32.5716 90.8941 31.1439 91.2849 29.7613C91.7056 28.3486 92.3368 27.0862 93.1784 25.9741C94.02 24.862 95.1021 23.9904 96.4245 23.3592C97.747 22.6979 99.31 22.3673 101.113 22.3673C102.827 22.3673 104.314 22.6679 105.577 23.269C106.869 23.8401 107.936 24.6516 108.778 25.7036C109.619 26.7255 110.236 27.8977 110.626 29.2202C111.047 30.5427 111.258 31.9554 111.258 33.4582C111.258 33.6686 111.242 33.9692 111.212 34.3599C111.212 34.7507 111.182 35.1414 111.122 35.5321H95.7032C95.8234 37.3055 96.4245 38.658 97.5066 39.5898C98.5886 40.5216 99.9712 40.9874 101.654 40.9874C102.887 40.9874 104.014 40.7921 105.036 40.4013C106.058 40.0106 106.989 39.3944 107.831 38.5528L110.581 41.8891C109.649 42.7307 108.718 43.407 107.786 43.918C106.854 44.4289 105.877 44.8046 104.855 45.0451C103.864 45.2855 102.736 45.4058 101.474 45.4058ZM106.343 33.0074C106.403 32.7669 106.433 32.5265 106.433 32.286C106.463 32.0456 106.479 31.8051 106.479 31.5647C106.479 30.9034 106.358 30.2722 106.118 29.6711C105.907 29.07 105.577 28.544 105.126 28.0931C104.675 27.6122 104.119 27.2365 103.458 26.966C102.797 26.6654 102.045 26.5151 101.204 26.5151C100.031 26.5151 99.0395 26.7706 98.2279 27.2816C97.4465 27.7925 96.8303 28.4538 96.3795 29.2653C95.9587 30.0468 95.7032 30.9034 95.613 31.8352H107.966L106.343 33.0074ZM123.296 45L113.963 13.5757H119.374L126.181 37.02L132.538 15.3791H137.678L144.08 37.02L150.798 13.5757H156.253L146.92 45H141.826L134.702 21.5558H135.559L128.391 45H123.296ZM172.115 45L171.755 41.2579V30.9786C171.755 29.5358 171.319 28.4538 170.447 27.7324C169.575 26.981 168.358 26.6053 166.795 26.6053C165.593 26.6053 164.406 26.8458 163.234 27.3267C162.091 27.7775 161.039 28.4839 160.078 29.4457L157.282 26.1545C158.725 24.8019 160.258 23.8401 161.881 23.269C163.504 22.6679 165.277 22.3673 167.201 22.3673C170.207 22.3673 172.536 23.1338 174.189 24.6667C175.872 26.1695 176.714 28.2735 176.714 30.9786V45H172.115ZM165.217 45.4058C163.564 45.4058 162.091 45.1052 160.799 44.5041C159.537 43.9029 158.545 43.0613 157.823 41.9793C157.132 40.8973 156.786 39.6349 156.786 38.1922C156.786 36.9598 157.042 35.8928 157.553 34.9911C158.094 34.0894 158.785 33.3831 159.627 32.8721C160.348 32.4213 161.19 32.1057 162.151 31.9253C163.113 31.7149 164.12 31.6097 165.172 31.6097H172.16V35.3518H165.894C165.352 35.3518 164.811 35.4119 164.27 35.5321C163.729 35.6223 163.249 35.8027 162.828 36.0732C162.527 36.3136 162.272 36.6142 162.061 36.9749C161.881 37.3355 161.791 37.7563 161.791 38.2372C161.791 39.1991 162.151 39.9655 162.873 40.5366C163.624 41.0776 164.616 41.3481 165.848 41.3481C166.93 41.3481 167.907 41.1077 168.779 40.6268C169.681 40.1458 170.402 39.4846 170.943 38.643C171.484 37.8014 171.755 36.8546 171.755 35.8027L173.287 38.2823C172.927 39.8453 172.356 41.1678 171.574 42.2498C170.793 43.3018 169.861 44.0983 168.779 44.6393C167.697 45.1503 166.51 45.4058 165.217 45.4058ZM183.624 54.1523L188.043 43.5122L179.567 22.7731H185.067L190.703 38.5078L196.428 22.7731H201.839L189.034 54.1523H183.624Z" fill="url(#paint0_linear_20_2)"/>
<circle cx="208.5" cy="13" r="5.5" fill="#FF0000"/>
<defs>
<linearGradient id="paint0_linear_20_2" x1="0" y1="29.5" x2="203" y2="29.5" gradientUnits="userSpaceOnUse">
<stop stop-color="white"/>
<stop offset="1" stop-color="#FF0000"/>
</linearGradient>
</defs>
</svg>
